<svg xmlns="http://www.w3.org/2000/svg" width="512" height="512" viewBox="0 0 512 512">
  <path fill="#FFF" fill-rule="evenodd" d="M256,448 L352,256 L384,256 L512,512 L480,512 L368,288 L272,480 L400,480 L368,416 L384,384 L448,512 L256,512 L144,288 L48,480 L176,480 L144,416 L160,384 L224,512 L-1.13686838e-13,512 L128,256 L160,256 L256,448 Z M256,384 L160,192 L272,192 L256,224 L208,224 L256,320 L320,192 L304,160 L176,160 L256,-1.70530257e-13 L288,64 L272,96 L256,64 L224,128 L320,128 L352,192 L256,384 Z"/>
</svg>
